HIERARCHY
ROOT Hips
{
  OFFSET 0.0273292 -0.436096 0.279869
  CHANNELS 6 Xposition Yposition Zposition Zrotation Xrotation Yrotation
  JOINT LHipJoint
  {
    OFFSET 0 0 0
    CHANNELS 6 Xposition Yposition Zposition Zrotation Xrotation Yrotation
    JOINT LeftUpLeg
    {
      OFFSET 1.36306 -1.79463 0
      CHANNELS 6 Xposition Yposition Zposition Zrotation Xrotation Yrotation
      JOINT LeftLeg
      {
        OFFSET 2.44807 -6.72613 0.000295034
        CHANNELS 6 Xposition Yposition Zposition Zrotation Xrotation Yrotation
        JOINT LeftFoot
        {
          OFFSET 2.5622 -7.03959 3.59965e-05
          CHANNELS 6 Xposition Yposition Zposition Zrotation Xrotation Yrotation
          JOINT LeftToeBase
          {
            OFFSET 0.15764 -0.43311 2.32255
            CHANNELS 6 Xposition Yposition Zposition Zrotation Xrotation Yrotation
            End Site
            {
              OFFSET 0 0 0
            }
          }
        }
      }
    }
  }
  JOINT RHipJoint
  {
    OFFSET 0 0 0
    CHANNELS 6 Xposition Yposition Zposition Zrotation Xrotation Yrotation
    JOINT RightUpLeg
    {
      OFFSET -1.30552 -1.79463 0
      CHANNELS 6 Xposition Yposition Zposition Zrotation Xrotation Yrotation
      JOINT RightLeg
      {
        OFFSET -2.54234 -6.98562 -0.000396375
        CHANNELS 6 Xposition Yposition Zposition Zrotation Xrotation Yrotation
        JOINT RightFoot
        {
          OFFSET -2.56826 -7.05623 -4.47982e-05
          CHANNELS 6 Xposition Yposition Zposition Zrotation Xrotation Yrotation
          JOINT RightToeBase
          {
            OFFSET -0.16473 -0.45259 2.36315
            CHANNELS 6 Xposition Yposition Zposition Zrotation Xrotation Yrotation
            End Site
            {
              OFFSET 0 0 0
            }
          }
        }
      }
    }
  }
  JOINT LowerBack
  {
    OFFSET 0 0 0
    CHANNELS 6 Xposition Yposition Zposition Zrotation Xrotation Yrotation
    JOINT Spine
    {
      OFFSET 0.0282699 2.03559 0
      CHANNELS 6 Xposition Yposition Zposition Zrotation Xrotation Yrotation
      JOINT Spine1
      {
        OFFSET 0.05672 2.04885 -0.04275
        CHANNELS 6 Xposition Yposition Zposition Zrotation Xrotation Yrotation
        JOINT Neck
        {
          OFFSET 0 0 0
          CHANNELS 6 Xposition Yposition Zposition Zrotation Xrotation Yrotation
          JOINT Neck1
          {
            OFFSET -0.05417 1.74624 0.17202
            CHANNELS 6 Xposition Yposition Zposition Zrotation Xrotation Yrotation
            JOINT Head
            {
              OFFSET 0.10407 1.76136 -0.12397
              CHANNELS 6 Xposition Yposition Zposition Zrotation Xrotation Yrotation
              End Site
              {
                OFFSET 0 0 0
              }
            }
          }
        }
        JOINT LeftShoulder
        {
          OFFSET 0 0 0
          CHANNELS 6 Xposition Yposition Zposition Zrotation Xrotation Yrotation
          JOINT LeftArm
          {
            OFFSET 3.36241 1.20089 -0.311211
            CHANNELS 6 Xposition Yposition Zposition Zrotation Xrotation Yrotation
            JOINT LeftForeArm
            {
              OFFSET 4.983 0.000197398 0.000166057
              CHANNELS 6 Xposition Yposition Zposition Zrotation Xrotation Yrotation
              JOINT LeftHand
              {
                OFFSET 3.48356 0 1.87849e-05
                CHANNELS 6 Xposition Yposition Zposition Zrotation Xrotation Yrotation
                JOINT LeftFingerBase
                {
                  OFFSET 0 0 0
                  CHANNELS 6 Xposition Yposition Zposition Zrotation Xrotation Yrotation
                  JOINT LeftHandIndex1
                  {
                    OFFSET 0.71526 0 0
                    CHANNELS 6 Xposition Yposition Zposition Zrotation Xrotation Yrotation
                    End Site
                    {
                      OFFSET 0 0 0
                    }
                  }
                }
                JOINT LThumb
                {
                  OFFSET 0 0 0
                  CHANNELS 6 Xposition Yposition Zposition Zrotation Xrotation Yrotation
                  End Site
                  {
                    OFFSET 0 0 0
                  }
                }
              }
            }
          }
        }
        JOINT RightShoulder
        {
          OFFSET 0 0 0
          CHANNELS 6 Xposition Yposition Zposition Zrotation Xrotation Yrotation
          JOINT RightArm
          {
            OFFSET -3.1366 1.37405 -0.404651
            CHANNELS 6 Xposition Yposition Zposition Zrotation Xrotation Yrotation
            JOINT RightForeArm
            {
              OFFSET -5.2419 -5.8808e-05 -0.000165864
              CHANNELS 6 Xposition Yposition Zposition Zrotation Xrotation Yrotation
              JOINT RightHand
              {
                OFFSET -3.44417 0 -2.00002e-05
                CHANNELS 6 Xposition Yposition Zposition Zrotation Xrotation Yrotation
                JOINT RightFingerBase
                {
                  OFFSET 0 0 0
                  CHANNELS 6 Xposition Yposition Zposition Zrotation Xrotation Yrotation
                  JOINT RightHandIndex1
                  {
                    OFFSET -0.62253 0 0
                    CHANNELS 6 Xposition Yposition Zposition Zrotation Xrotation Yrotation
                    End Site
                    {
                      OFFSET 0 0 0
                    }
                  }
                }
                JOINT RThumb
                {
                  OFFSET 0 0 0
                  CHANNELS 6 Xposition Yposition Zposition Zrotation Xrotation Yrotation
                  End Site
                  {
                    OFFSET 0 0 0
                  }
                }
              }
            }
          }
        }
      }
    }
  }
}
MOTION
Frames:	4
Frame Time:	0.00833333
0.00817966 2.10086 0.0141025 0.877052 -1.71378 1.26802 0 0 0 7.45443e-17 -5.96354e-16 1.98785e-16 1.36306 -1.79463 2.34536e-08 -13.2441 -3.6013 9.63678 2.4481 -6.72614 -6.20344e-05 -0.4429 8.91524 -0.849029 2.5622 -7.03959 -1.63151e-05 -6.37341 -5.02523 -1.85399 0.15764 -0.43311 2.32255 4.96962e-17 0 -0 0 0 0 7.45443e-17 -5.96354e-16 1.98785e-16 -1.30552 -1.79463 -1.52547e-08 17.4118 -12.9967 -8.04843 -2.54245 -6.98559 0.000473882 2.51324 26.0186 -7.8387 -2.56826 -7.05622 4.55407e-05 -0.626176 -14.7608 5.17838 -0.16473 -0.45259 2.36315 4.42296e-15 -3.97569e-16 -0 0 0 0 7.45443e-17 -5.96354e-16 1.98785e-16 0.02827 2.03559 3.46244e-08 0.910552 3.20557 -0.301431 0.05672 2.04885 -0.04275 5.18704e-16 0 -0 0 0 0 3.16813e-16 0 -1.98785e-16 -0.05417 1.74624 0.17202 -0.154328 1.61169 -0.468292 0.10407 1.76136 -0.12397 4.96962e-17 0 -9.93923e-17 0 0 0 3.16813e-16 0 -1.98785e-16 3.36241 1.20089 -0.31121 -80.498 8.76087 4.05369 4.983 0.000199777 0.000104559 0.390913 -1.37628 -30.3017 3.48356 6.08391e-06 -2.69605e-05 -0.723137 -0.33954 0.456703 0 0 0 3.97569e-16 -1.59028e-15 -0 0.71526 -8.88178e-16 2.22045e-16 -0 -1.59028e-15 -0 0 0 0 3.97569e-16 -1.59028e-15 -0 0 0 0 3.16813e-16 0 -1.98785e-16 -3.1366 1.37406 -0.404651 81.1823 25.6322 -4.92998 -5.2419 0.000246269 2.84795e-05 -0.525704 -1.1448 27.0016 -3.44417 5.28773e-06 -2.4038e-05 -5.67811 2.09702 1.04737 0 0 0 0 3.18055e-15 -0 -0.62253 0 -2.22045e-16 1.59028e-15 -3.18055e-15 3.18055e-15 0 0 0 0 3.18055e-15 -0 
0.00806392 2.10077 0.0148072 0.873797 -1.72015 1.26621 0 0 0 2.48481e-16 0 1.98785e-16 1.36306 -1.79463 2.34536e-08 -13.2401 -3.5923 9.64066 2.4481 -6.72614 -6.20344e-05 -0.442878 8.91543 -0.84579 2.5622 -7.03959 -1.63151e-05 -6.37467 -5.0292 -1.85546 0.15764 -0.43311 2.32255 2.13694e-15 3.97569e-16 -0 0 0 0 2.48481e-16 0 1.98785e-16 -1.30552 -1.79463 -1.52547e-08 17.4151 -12.9876 -8.05199 -2.54245 -6.98559 0.000473882 2.51309 26.0183 -7.83895 -2.56826 -7.05622 4.55407e-05 -0.626066 -14.7636 5.17951 -0.16473 -0.45259 2.36315 2.38542e-15 0 4.77083e-15 0 0 0 2.48481e-16 0 1.98785e-16 0.02827 2.03559 3.46244e-08 0.907146 3.20621 -0.303515 0.05672 2.04885 -0.04275 1.14922e-16 -1.98785e-16 -1.98785e-16 0 0 0 1.18028e-16 -1.98785e-16 -1.98785e-16 -0.05417 1.74624 0.17202 -0.151672 1.60853 -0.469743 0.10407 1.76136 -0.12397 1.30452e-16 3.97569e-16 -0 0 0 0 1.18028e-16 -1.98785e-16 -1.98785e-16 3.36241 1.20089 -0.31121 -80.5201 8.73495 4.07614 4.983 0.000199777 0.000104559 0.39092 -1.37629 -30.3014 3.48356 6.08391e-06 -2.69605e-05 -0.720537 -0.326969 0.425111 0 0 0 -1.98785e-15 -2.38542e-15 -0 0.71526 8.88178e-16 2.22045e-16 3.97569e-16 -7.95139e-16 3.18055e-15 0 0 0 -1.98785e-15 -2.38542e-15 -0 0 0 0 1.18028e-16 -1.98785e-16 -1.98785e-16 -3.1366 1.37406 -0.404651 81.1974 25.6123 -4.93979 -5.2419 0.000246269 2.84795e-05 -0.525693 -1.14478 27.0022 -3.44417 5.28773e-06 -2.4038e-05 -5.67436 2.09431 1.04993 0 0 0 -1.59028e-15 -6.36111e-15 -3.18055e-15 -0.62253 0 -2.22045e-16 -1.59028e-15 -6.36111e-15 -3.18055e-15 0 0 0 -1.59028e-15 -6.36111e-15 -3.18055e-15 
0.007926 2.10067 0.0155034 0.870391 -1.72651 1.26473 0 0 0 1.86361e-17 3.97569e-16 -3.97569e-16 1.36306 -1.79463 2.34536e-08 -13.2359 -3.58355 9.64453 2.4481 -6.72614 -6.20344e-05 -0.442866 8.91587 -0.842766 2.5622 -7.03959 -1.63151e-05 -6.37595 -5.03312 -1.85687 0.15764 -0.43311 2.32255 4.02539e-15 0 -1.59028e-15 0 0 0 1.86361e-17 3.97569e-16 -3.97569e-16 -1.30552 -1.79463 -1.52547e-08 17.4188 -12.9786 -8.05534 -2.54245 -6.98559 0.000473882 2.51272 26.0174 -7.8396 -2.56826 -7.05622 4.55407e-05 -0.625738 -14.7662 5.18066 -0.16473 -0.45259 2.36315 -3.03147e-15 -3.97569e-16 -1.59028e-15 0 0 0 1.86361e-17 3.97569e-16 -3.97569e-16 0.02827 2.03559 3.46244e-08 0.903679 3.20701 -0.305677 0.05672 2.04885 -0.04275 -3.10601e-18 -1.98785e-16 -0 0 0 0 -9.31803e-18 0 1.98785e-16 -0.05417 1.74624 0.17202 -0.149009 1.60529 -0.471219 0.10407 1.76136 -0.12397 -1.86361e-16 3.97569e-16 9.93923e-17 0 0 0 -9.31803e-18 0 1.98785e-16 3.36241 1.20089 -0.31121 -80.5422 8.70894 4.09921 4.983 0.000199777 0.000104559 0.390939 -1.37631 -30.3007 3.48356 6.08391e-06 -2.69605e-05 -0.718071 -0.313454 0.392472 0 0 0 -1.19271e-15 -7.95139e-16 -0 0.71526 0 -1.11022e-16 -3.97569e-16 -7.95139e-16 3.18055e-15 0 0 0 -1.19271e-15 -7.95139e-16 -0 0 0 0 -9.31803e-18 0 1.98785e-16 -3.1366 1.37406 -0.404651 81.2128 25.5925 -4.94973 -5.2419 0.000246269 2.84795e-05 -0.525684 -1.14475 27.0028 -3.44417 5.28773e-06 -2.4038e-05 -5.67052 2.09151 1.05252 0 0 0 4.77083e-15 9.54166e-15 -3.18055e-15 -0.62253 4.44089e-16 0 1.59028e-15 -6.36111e-15 -0 0 0 0 4.77083e-15 9.54166e-15 -3.18055e-15 
0.00777575 2.10057 0.0161935 0.866918 -1.73283 1.26343 0 0 0 1.2424e-17 -3.97569e-16 -0 1.36306 -1.79463 2.34536e-08 -13.2314 -3.57495 9.64843 2.4481 -6.72614 -6.20344e-05 -0.442868 8.91645 -0.839974 2.5622 -7.03959 -1.63151e-05 -6.37727 -5.03699 -1.85826 0.15764 -0.43311 2.32255 -3.97569e-16 0 -1.59028e-15 0 0 0 1.2424e-17 -3.97569e-16 -0 -1.30552 -1.79463 -1.52547e-08 17.4227 -12.9699 -8.05853 -2.54245 -6.98559 0.000473882 2.51222 26.0164 -7.84053 -2.56826 -7.05622 4.55407e-05 -0.625338 -14.7688 5.1818 -0.16473 -0.45259 2.36315 -1.09332e-15 -3.97569e-16 -0 0 0 0 1.2424e-17 -3.97569e-16 -0 0.02827 2.03559 3.46244e-08 0.900158 3.20792 -0.307773 0.05672 2.04885 -0.04275 3.75827e-16 1.98785e-16 -1.98785e-16 0 0 0 1.77043e-16 1.98785e-16 -0 -0.05417 1.74624 0.17202 -0.146342 1.60198 -0.472686 0.10407 1.76136 -0.12397 -9.00743e-17 3.97569e-16 9.93923e-17 0 0 0 1.77043e-16 1.98785e-16 -0 3.36241 1.20089 -0.31121 -80.5643 8.68296 4.12256 4.983 0.000199777 0.000104559 0.390965 -1.37634 -30.2998 3.48356 6.08391e-06 -2.69605e-05 -0.715661 -0.299569 0.359414 0 0 0 1.98785e-15 -1.59028e-15 -3.18055e-15 0.71526 0 -1.11022e-16 -2.64834e-31 -2.38542e-15 -6.36111e-15 0 0 0 1.98785e-15 -1.59028e-15 -3.18055e-15 0 0 0 1.77043e-16 1.98785e-16 -0 -3.1366 1.37406 -0.404651 81.2284 25.5728 -4.95978 -5.2419 0.000246269 2.84795e-05 -0.525676 -1.14473 27.0034 -3.44417 5.28773e-06 -2.4038e-05 -5.66668 2.08869 1.05517 0 0 0 1.59028e-15 -6.36111e-15 -3.18055e-15 -0.62253 4.44089e-16 -2.22045e-16 1.59028e-15 0 -6.36111e-15 0 0 0 1.59028e-15 -6.36111e-15 -3.18055e-15 
